<svg width="29" height="29" viewBox="0 0 29 29" fill="none" xmlns="http://www.w3.org/2000/svg">
<path d="M9.23821 15.1353L9.81979 12H11.0317L9.95561 17H8.68797L8.00889 14.1497L7.34373 17H6.07958L5 12H6.21539L6.79697 15.1353L7.49347 12H8.53126L9.23821 15.1353Z" fill="#C7C7C7"/>
<path d="M15.7224 15.1353L16.3039 12H17.5159L16.4398 17H15.1721L14.493 14.1497L13.8279 17H12.5637L11.4841 12H12.6995L13.2811 15.1353L13.9776 12H15.0154L15.7224 15.1353Z" fill="#C7C7C7"/>
<path d="M22.7881 12L22.2065 15.1353L21.4996 12H20.4618L19.7653 15.1353L19.1837 12H17.9683L19.0479 17H20.312L20.9772 14.1497L21.6563 17H22.9239L24 12H22.7881Z" fill="#C7C7C7"/>
<path fill-rule="evenodd" clip-rule="evenodd" d="M29 14.5C29 22.5081 22.5081 29 14.5 29C6.49187 29 0 22.5081 0 14.5C0 6.49187 6.49187 0 14.5 0C22.5081 0 29 6.49187 29 14.5ZM27 14.5C27 21.4036 21.4036 27 14.5 27C7.59644 27 2 21.4036 2 14.5C2 7.59644 7.59644 2 14.5 2C21.4036 2 27 7.59644 27 14.5Z" fill="#C7C7C7"/>
</svg>
