<svg width="28" height="26" viewBox="0 0 28 26" fill="none" xmlns="http://www.w3.org/2000/svg">
<path fill-rule="evenodd" clip-rule="evenodd" d="M20.6777 7C20.6777 10.866 17.5437 14 13.6777 14C9.81174 14 6.67773 10.866 6.67773 7C6.67773 3.13401 9.81174 0 13.6777 0C17.5437 0 20.6777 3.13401 20.6777 7ZM18.6777 7C18.6777 9.76142 16.4392 12 13.6777 12C10.9163 12 8.67773 9.76142 8.67773 7C8.67773 4.23858 10.9163 2 13.6777 2C16.4392 2 18.6777 4.23858 18.6777 7Z" fill="black"/>
<path d="M13.6778 17C19.2693 17 23.9676 20.8243 25.2998 26H27.3556C25.9823 19.7096 20.3801 15 13.6778 15C6.97558 15 1.37334 19.7096 0 26H2.05587C3.388 20.8243 8.0863 17 13.6778 17Z" fill="black"/>
</svg>
