<svg width="27" height="26" viewBox="0 0 27 26" fill="none" xmlns="http://www.w3.org/2000/svg">
<path d="M14.3555 8C14.3555 8.55229 13.9078 9 13.3555 9C12.8032 9 12.3555 8.55229 12.3555 8C12.3555 7.44772 12.8032 7 13.3555 7C13.9078 7 14.3555 7.44772 14.3555 8Z" fill="black"/>
<path d="M12.3555 11H14.3555V19H12.3555V11Z" fill="black"/>
<path fill-rule="evenodd" clip-rule="evenodd" d="M13.3555 26C20.5352 26 26.3555 20.1797 26.3555 13C26.3555 5.8203 20.5352 0 13.3555 0C6.17577 0 0.355469 5.8203 0.355469 13C0.355469 20.1797 6.17577 26 13.3555 26ZM13.3555 24C19.4306 24 24.3555 19.0751 24.3555 13C24.3555 6.92487 19.4306 2 13.3555 2C7.28034 2 2.35547 6.92487 2.35547 13C2.35547 19.0751 7.28034 24 13.3555 24Z" fill="black"/>
</svg>
