<svg width="23" height="32" viewBox="0 0 23 32" fill="none" xmlns="http://www.w3.org/2000/svg">
<path fill-rule="evenodd" clip-rule="evenodd" d="M6.20211 17.3036V19H5V14H6.98981C7.3711 14 7.70788 14.071 8.00013 14.2129C8.29466 14.3526 8.52184 14.5529 8.68166 14.8139C8.84377 15.0726 8.92482 15.3668 8.92482 15.6964C8.92482 16.1841 8.75016 16.5744 8.40083 16.8674C8.05378 17.1582 7.57659 17.3036 6.96926 17.3036H6.20211ZM6.20211 16.3729H6.98981C7.2227 16.3729 7.39964 16.3146 7.52065 16.1978C7.64395 16.081 7.70559 15.9162 7.70559 15.7033C7.70559 15.4698 7.64281 15.2832 7.51723 15.1435C7.39165 15.0039 7.22041 14.9329 7.00351 14.9306H6.20211V16.3729Z" fill="black"/>
<path fill-rule="evenodd" clip-rule="evenodd" d="M9.84925 19V14H11.4555C11.8961 14 12.2923 14.1007 12.6439 14.3022C12.9955 14.5014 13.2695 14.7841 13.4658 15.1504C13.6645 15.5144 13.7649 15.9231 13.7672 16.3764V16.6065C13.7672 17.0643 13.6702 17.4753 13.4761 17.8393C13.2843 18.201 13.0126 18.4849 12.661 18.6909C12.3117 18.8947 11.9213 18.9977 11.4897 19H9.84925ZM11.0514 14.9306V18.0728H11.4692C11.8139 18.0728 12.0788 17.9503 12.2637 17.7054C12.4487 17.4581 12.5411 17.0918 12.5411 16.6065V16.3901C12.5411 15.9071 12.4487 15.543 12.2637 15.2981C12.0788 15.0531 11.8094 14.9306 11.4555 14.9306H11.0514Z" fill="black"/>
<path d="M15.8663 17.0082H17.8048V16.081H15.8663V14.9306H18V14H14.6642V19H15.8663V17.0082Z" fill="black"/>
<path fill-rule="evenodd" clip-rule="evenodd" d="M22.9804 6.51683V30.5948C22.9804 31.075 22.6031 31.4866 22.1229 31.4866H0.891777C0.411589 31.4866 0 31.075 0 30.5948V0.891777C0 0.411589 0.411589 0 0.891777 0H16.4979V3.9787C16.4979 5.35066 17.6297 6.51683 19.036 6.51683H22.9804ZM19.036 8.51683C16.5077 8.51683 14.4979 6.43765 14.4979 3.9787V2H2V29.4866H20.9804V8.51683H19.036Z" fill="black"/>
<path d="M19.0359 5.0069H23L17.9727 0V3.94362C17.9727 4.56101 18.4528 5.0069 19.0359 5.0069Z" fill="black"/>
</svg>
