<svg width="16" height="24" viewBox="0 0 16 24" fill="none" xmlns="http://www.w3.org/2000/svg">
<path d="M15.8949 21.4634C15.9646 21.6208 16 21.7806 16 21.9426C16 22.1671 15.9377 22.3758 15.8124 22.5705C15.6878 22.7646 15.5124 22.9133 15.2876 23.0159L14.2306 23.4881C13.8182 23.6671 13.4052 23.7971 12.9916 23.8782C12.578 23.9592 12.1601 24 11.7373 24C11.0573 24 10.3858 23.8921 9.72231 23.6764C9.0588 23.4607 8.42401 23.1517 7.81793 22.7501C7.21185 22.3484 6.64304 21.8622 6.11211 21.2926C5.58118 20.7224 5.10524 20.087 4.6855 19.3856C4.4179 18.9968 4.13686 18.5531 3.84176 18.0547C3.59187 17.6302 3.30655 17.1219 2.98518 16.529C2.66382 15.9366 2.34 15.2785 2.01253 14.5561C1.67772 13.8332 1.41194 13.2018 1.21582 12.662C1.0197 12.1216 0.867573 11.6727 0.760654 11.3153C0.635405 10.8979 0.549259 10.5399 0.502215 10.242C0.329922 9.68873 0.202841 9.13839 0.121583 8.59096C0.040324 8.04353 0 7.50135 0 6.965C0 6.26366 0.0739273 5.58914 0.22117 4.94027C0.368413 4.2914 0.595082 3.688 0.899954 3.13008C1.20483 2.57216 1.59157 2.07312 2.06018 1.63296C2.52879 1.1928 3.08294 0.834843 3.72262 0.557923L4.76493 0.100274C4.92928 0.0332305 5.09424 0 5.2592 0C5.49137 0 5.70765 0.0612141 5.90805 0.184225C6.10784 0.307236 6.25813 0.476887 6.35772 0.69376L8.36353 5.03996C8.43379 5.19737 8.46861 5.35477 8.46861 5.51218C8.46861 5.74363 8.40629 5.95759 8.28104 6.15406C8.1558 6.35052 7.97984 6.49802 7.75256 6.59596L5.69055 7.50077C5.41805 7.62028 5.20971 7.79518 5.0643 8.02662C4.91951 8.25807 4.8468 8.50701 4.8468 8.77402C4.8468 8.9769 4.88651 9.16754 4.96655 9.34652L8.35192 16.7231C8.4845 17.007 8.66718 17.2157 8.90118 17.3492C9.13456 17.4827 9.38934 17.5498 9.66427 17.5498C9.85184 17.5498 10.0431 17.509 10.238 17.4279L12.3 16.5231C12.4625 16.4567 12.6262 16.4229 12.7912 16.4229C13.0185 16.4229 13.2335 16.4841 13.4358 16.6071C13.638 16.7301 13.7907 16.8986 13.8934 17.1131L15.8949 21.4634Z" fill="#010002"/>
</svg>
