<svg width="26" height="26" viewBox="0 0 26 26" fill="none" xmlns="http://www.w3.org/2000/svg">
<path fill-rule="evenodd" clip-rule="evenodd" d="M16.7895 15.3452C19.6203 11.8115 19.3977 6.63852 16.1218 3.3626C12.6071 -0.152117 6.90857 -0.152117 3.39385 3.3626C-0.120867 6.87732 -0.120867 12.5758 3.39385 16.0905C6.66935 19.366 11.8415 19.589 15.3752 16.7593L23.8981 25.2822L25.3123 23.868L16.7895 15.3452ZM14.7076 4.77681C17.4412 7.51049 17.4412 11.9426 14.7076 14.6763C11.9739 17.41 7.54174 17.41 4.80806 14.6763C2.0744 11.9426 2.0744 7.51049 4.80806 4.77681C7.54174 2.04314 11.9739 2.04315 14.7076 4.77681Z" fill="#C7C7C7"/>
</svg>
