<svg width="38" height="22" viewBox="0 0 38 22" fill="none" xmlns="http://www.w3.org/2000/svg">
<path fill-rule="evenodd" clip-rule="evenodd" d="M21.8293 2C21.4175 0.834808 20.3062 0 19 0C17.6938 0 16.5825 0.834808 16.1707 2H0V4H16.1707C16.5825 5.16519 17.6938 6 19 6C20.3062 6 21.4175 5.16519 21.8293 4H38V2H21.8293ZM20 3C20 3.55228 19.5523 4 19 4C18.4477 4 18 3.55228 18 3C18 2.44772 18.4477 2 19 2C19.5523 2 20 2.44772 20 3Z" fill="black"/>
<path fill-rule="evenodd" clip-rule="evenodd" d="M29 8C27.6938 8 26.5825 8.83481 26.1707 10H0V12H26.1707C26.5825 13.1652 27.6938 14 29 14C30.3062 14 31.4175 13.1652 31.8293 12L38 12V10L31.8293 10C31.4175 8.83481 30.3062 8 29 8ZM29 10C29.5523 10 30 10.4477 30 11C30 11.5523 29.5523 12 29 12C28.4477 12 28 11.5523 28 11C28 10.4477 28.4477 10 29 10Z" fill="black"/>
<path fill-rule="evenodd" clip-rule="evenodd" d="M11.8293 20C11.4175 21.1652 10.3062 22 9 22C7.69378 22 6.58254 21.1652 6.17071 20L0 20V18L6.17071 18C6.58254 16.8348 7.69378 16 9 16C10.3062 16 11.4175 16.8348 11.8293 18L38 18V20L11.8293 20ZM8 19C8 19.5523 8.44772 20 9 20C9.55229 20 10 19.5523 10 19C10 18.4477 9.55229 18 9 18C8.44772 18 8 18.4477 8 19Z" fill="black"/>
</svg>
